# xmcd CD database file
#
# Track frame offsets:
#	150
#	17215
#	36058
#	52674
#	68668
#	87359
#	103986
#	119824
#	142743
#	164224
#	179001
#	195506
#	208468
#	225848
#
# Disc length: 3160 seconds
#
# Revision: 0
# Processed by: cddbd v1.5.2PL0 Copyright (c) Steve Scherf et al.
# Submitted via: CDex 2.20
#
DISCID=c70c560e
DTITLE=Chrystian Brucale - Vienteterr
DYEAR=2019
DGENRE=Blues
TTITLE0='e mmane sporche
TTITLE1=marona nera
TTITLE2=stella diana
TTITLE3='e figlie
TTITLE4=tarantella del garofano
TTITLE5='a flobert
TTITLE6=fujenti
TTITLE7=terra nera
TTITLE8=tammorra a sunagliera
TTITLE9=a madonna d''e mandarine
TTITLE10=speranza
TTITLE11=la palumella
TTITLE12=terra mia
TTITLE13=a voce d''a tammorra
EXTD=YEAR: 2019
EXTT0=
EXTT1=
EXTT2=
EXTT3=
EXTT4=
EXTT5=
EXTT6=
EXTT7=
EXTT8=
EXTT9=
EXTT10=
EXTT11=
EXTT12=
EXTT13=
PLAYORDER=
